<?xml version="1.0" standalone="no"?>
<svg viewBox="0 0 200 200" xmlns="http://www.w3.org/2000/svg">
  <path fill="#16171E" d="M35.1,-68.7C42.1,-56.8,42,-40.5,49.8,-28.3C57.7,-16.1,73.6,-8,76.3,1.5C78.9,11.1,68.2,22.2,59.5,32.8C50.7,43.5,43.9,53.8,34.3,57.2C24.7,60.6,12.3,57.1,-1.1,59C-14.5,60.9,-29,68.2,-40.5,65.8C-51.9,63.5,-60.3,51.6,-61.4,39C-62.5,26.4,-56.4,13.2,-56.6,-0.1C-56.8,-13.4,-63.3,-26.9,-61.5,-38.3C-59.8,-49.8,-49.7,-59.2,-38.1,-68.4C-26.4,-77.5,-13.2,-86.4,0.4,-87.1C14.1,-87.9,28.2,-80.5,35.1,-68.7Z" transform="translate(100 100)" />
</svg>
