<?xml version="1.0" standalone="no"?>
<!DOCTYPE svg PUBLIC "-//W3C//DTD SVG 20010904//EN"
 "http://www.w3.org/TR/2001/REC-SVG-20010904/DTD/svg10.dtd">
<svg version="1.0" xmlns="http://www.w3.org/2000/svg"
 width="1216.000000pt" height="1104.000000pt" viewBox="0 0 1216.000000 1104.000000"
 preserveAspectRatio="xMidYMid meet">

<g transform="translate(0.000000,1104.000000) scale(0.100000,-0.100000)"
fill="#000000" stroke="none">
<path d="M7636 10204 c-16 -9 -81 -29 -145 -45 -63 -16 -120 -34 -125 -39 -5
-5 13 -2 39 6 27 8 50 12 52 10 8 -8 -85 -54 -142 -71 -33 -9 -74 -25 -91 -36
-18 -11 -38 -17 -46 -14 -16 6 -150 -81 -251 -163 -88 -72 -214 -214 -289
-327 -25 -39 -26 -43 -18 -126 5 -54 16 -101 29 -127 12 -23 21 -48 21 -56 0
-8 -26 -29 -57 -46 -32 -18 -79 -48 -106 -66 -26 -19 -49 -34 -51 -34 -3 0
-35 -21 -73 -46 -93 -62 -191 -158 -334 -329 -19 -22 -103 -107 -187 -190 -84
-82 -158 -159 -165 -171 -48 -89 -100 -174 -107 -179 -21 -13 -120 -153 -135
-193 -10 -23 -21 -42 -26 -42 -5 0 -9 -6 -9 -12 0 -7 -11 -26 -25 -43 l-24
-30 -2 195 c-1 107 -3 209 -4 225 -2 17 -6 75 -10 130 -4 55 -8 111 -9 125 -4
52 -57 198 -86 238 -78 108 -184 61 -357 -157 -76 -96 -99 -132 -73 -116 10 6
-32 -91 -62 -141 -10 -17 -25 -53 -32 -80 -8 -27 -32 -102 -55 -166 -44 -124
-89 -297 -115 -438 -23 -129 -35 -346 -42 -767 -4 -211 -11 -383 -16 -383 -4
0 -8 3 -8 8 0 4 -7 66 -15 137 -19 169 -19 425 0 610 18 162 15 219 -4 85 -35
-262 -42 -367 -31 -527 6 -87 15 -180 20 -206 6 -26 10 -65 10 -85 l-1 -37
-15 35 c-34 77 -54 235 -54 433 0 243 22 442 72 642 11 44 29 125 39 180 10
55 24 113 29 129 6 16 8 31 5 34 -2 3 -8 -4 -11 -14 -4 -10 -18 -44 -32 -74
-30 -68 -69 -187 -77 -237 -4 -21 -15 -83 -25 -139 -11 -55 -26 -186 -35 -291
-22 -268 -11 -372 80 -718 32 -119 67 -283 110 -506 9 -47 27 -131 41 -185
l24 -99 -37 -31 c-35 -30 -40 -31 -64 -18 -15 7 -55 48 -89 91 -114 143 -328
348 -346 330 -3 -2 10 -14 28 -25 63 -39 317 -315 318 -344 0 -33 -115 30
-158 84 -68 88 -194 272 -196 286 -2 8 -12 20 -23 26 -11 6 -55 43 -99 83
-144 131 -280 218 -436 277 -35 13 -85 35 -113 49 -153 76 -210 96 -314 108
-121 13 -204 8 -252 -16 -51 -26 -217 -174 -307 -273 -117 -130 -156 -187
-191 -287 -31 -85 -81 -303 -81 -349 0 -12 -25 -54 -55 -95 -100 -134 -170
-275 -205 -409 -15 -57 -15 -228 0 -283 14 -51 55 -135 79 -164 10 -11 25 -41
35 -67 9 -26 30 -63 47 -84 16 -20 29 -42 29 -49 0 -17 216 -225 234 -225 8 0
36 -28 62 -61 39 -51 59 -67 118 -94 74 -34 247 -78 384 -96 65 -9 95 -8 159
5 43 8 99 18 124 21 25 4 144 40 265 81 120 41 237 80 259 86 22 6 72 23 110
39 39 15 81 31 95 35 14 3 39 14 55 24 17 10 53 26 80 35 28 9 59 20 70 25 80
38 345 94 345 73 0 -13 -54 -97 -108 -168 -77 -100 -229 -245 -287 -274 -30
-14 -89 -56 -132 -93 -69 -59 -84 -79 -126 -162 -42 -84 -56 -102 -116 -150
-66 -53 -131 -144 -131 -184 0 -7 -22 -61 -49 -120 -28 -59 -60 -145 -71 -192
-12 -47 -28 -94 -34 -105 -7 -11 -16 -38 -20 -60 -4 -22 -19 -59 -32 -83 -24
-41 -25 -47 -18 -157 6 -106 5 -115 -15 -144 -44 -62 -81 -158 -81 -213 0 -94
57 -149 170 -164 39 -5 64 -15 88 -35 32 -28 65 -36 88 -21 8 5 11 41 10 110
l-2 102 36 10 c20 5 45 19 56 31 25 27 48 39 108 55 53 14 76 11 211 -31 78
-24 75 -20 60 -120 -7 -50 -6 -51 42 -110 103 -124 124 -162 159 -289 38 -135
38 -136 24 -136 -5 0 -10 11 -10 25 0 30 -29 34 -54 7 -21 -24 -137 -46 -205
-40 -41 4 -56 11 -68 29 -35 53 -114 116 -168 137 -140 54 -266 12 -506 -165
-113 -83 -157 -108 -236 -128 -118 -31 -400 -10 -504 38 -30 13 -88 38 -129
56 -58 24 -90 45 -139 94 -35 35 -67 71 -72 80 -13 22 18 81 63 123 82 77 144
106 270 128 99 17 117 14 438 -70 167 -43 295 -51 362 -21 47 20 108 68 108
85 0 20 -25 14 -50 -13 -60 -63 -260 -73 -416 -20 -130 44 -305 85 -364 85
-110 0 -255 -65 -357 -159 -39 -36 -55 -60 -68 -102 -51 -166 -18 -270 130
-412 28 -28 41 -46 30 -42 -11 4 -63 9 -115 12 -95 5 -95 5 -165 -32 -38 -21
-83 -47 -99 -58 -25 -18 -47 -22 -143 -24 -63 -1 -141 -7 -173 -13 -36 -7
-100 -8 -160 -4 -86 6 -100 5 -100 -8 0 -38 195 -39 423 -3 167 27 212 41 290
88 26 16 65 31 87 34 62 9 156 -16 209 -53 99 -70 118 -82 177 -102 58 -20 77
-21 280 -17 121 3 242 9 269 15 165 32 218 40 227 34 6 -4 72 -8 147 -9 91 -1
158 -8 204 -20 58 -15 76 -16 120 -6 29 7 74 16 102 21 53 10 147 36 180 51
90 38 93 39 138 23 28 -10 76 -14 147 -13 191 2 584 -10 625 -20 26 -7 74 -7
140 0 142 13 155 17 155 41 0 16 -5 19 -22 15 -13 -4 -63 -9 -113 -12 -49 -4
-95 -11 -101 -16 -7 -6 -25 -3 -50 8 -28 11 -74 17 -159 19 -66 2 -149 6 -185
9 -71 8 -85 8 -175 4 -42 -1 -69 3 -85 13 -36 23 -99 31 -150 18 -42 -10 -367
-42 -437 -43 -17 0 -56 5 -87 13 -44 10 -75 11 -157 1 -56 -6 -108 -16 -114
-21 -6 -5 -45 -12 -86 -16 l-74 -7 62 49 c251 197 278 213 328 194 16 -6 60
-41 98 -77 65 -63 69 -65 105 -58 20 4 64 11 97 15 76 11 167 35 207 56 45 23
126 108 134 140 5 20 -4 61 -31 143 -54 165 -99 255 -161 322 -61 66 -70 90
-55 146 l11 41 87 7 c87 7 133 20 133 38 0 5 -15 6 -37 2 -89 -19 -293 -1
-293 25 0 15 -64 30 -129 30 -80 0 -162 -27 -231 -75 -59 -42 -68 -43 -76 -10
-3 14 -10 22 -15 20 -4 -3 -6 -12 -3 -20 3 -8 -4 -24 -15 -36 -12 -13 -21 -26
-21 -31 0 -14 -40 -9 -46 6 -3 8 -12 12 -19 10 -7 -3 -16 -1 -20 5 -3 6 0 11
8 11 7 0 23 24 35 53 27 64 27 67 2 67 -25 0 -25 11 0 43 11 14 20 30 20 37 0
6 5 8 10 5 6 -4 8 -21 4 -42 -6 -31 -3 -38 22 -59 16 -13 32 -23 36 -24 4 0
10 17 13 38 3 20 10 45 16 54 13 25 11 38 -6 38 -8 0 -19 10 -26 21 -11 21
-10 36 10 136 6 29 16 77 21 105 25 124 33 150 55 164 13 9 28 34 35 62 7 26
17 52 22 58 4 6 6 18 2 27 -7 20 11 54 33 61 10 3 23 16 30 28 6 13 22 44 35
71 26 50 53 76 79 77 24 0 86 72 114 133 51 109 99 177 126 177 10 0 27 8 37
18 11 11 41 34 68 52 52 35 73 56 160 163 59 72 74 81 74 44 0 -13 6 -43 14
-68 8 -24 17 -61 21 -82 3 -21 15 -47 25 -57 20 -20 19 -21 -21 -87 -23 -38
-48 -75 -55 -83 -39 -43 -73 -90 -99 -135 -68 -119 -67 -118 -76 -278 -6 -112
-14 -168 -29 -212 -19 -55 -21 -74 -15 -224 3 -91 7 -167 10 -169 11 -11 57
11 72 35 16 24 18 57 19 303 l0 275 33 83 c18 45 36 82 41 82 4 0 13 14 20 30
7 17 31 56 53 88 22 31 62 112 88 180 36 93 58 135 89 168 23 25 38 49 34 56
-4 6 -3 8 3 5 6 -4 20 12 31 36 26 55 50 77 63 56 5 -8 9 -23 9 -34 1 -44 41
-146 104 -262 42 -77 76 -119 138 -169 89 -71 134 -120 179 -196 64 -110 84
-128 218 -212 25 -15 86 -61 136 -100 49 -40 128 -99 175 -130 47 -32 111 -85
144 -117 58 -57 162 -126 222 -146 75 -26 196 33 243 116 18 33 25 66 31 145
l7 103 52 54 c50 51 133 167 147 202 8 22 22 21 77 -3 25 -11 79 -23 119 -26
62 -6 86 -3 143 16 76 25 137 24 242 -5 l62 -18 -6 -51 c-10 -93 -31 -168 -55
-193 -13 -14 -54 -40 -93 -59 -138 -66 -213 -139 -245 -238 -16 -50 -8 -161
19 -276 23 -92 27 -217 10 -289 -12 -55 -60 -152 -99 -202 -31 -38 -117 -107
-181 -143 -36 -21 -228 -108 -294 -133 -24 -10 -75 -16 -130 -17 l-90 -1 -35
65 c-32 59 -35 72 -35 145 0 62 5 89 22 121 30 56 106 138 172 185 98 69 164
125 248 211 96 97 129 166 120 250 -9 77 -64 185 -83 165 -3 -3 6 -36 21 -73
37 -91 32 -158 -19 -247 -27 -50 -52 -76 -113 -123 -325 -246 -379 -307 -390
-442 -13 -167 121 -370 265 -403 66 -14 192 -19 246 -8 138 27 332 122 429
208 82 75 170 226 228 396 33 97 33 265 1 376 -12 41 -22 100 -22 130 0 47 4
59 28 81 15 15 53 38 84 51 40 18 66 38 88 69 114 156 143 342 64 409 -55 46
-210 100 -309 106 -45 3 -95 -1 -138 -11 -38 -9 -97 -16 -132 -16 -60 0 -149
21 -168 40 -15 14 2 45 35 65 47 27 66 54 73 101 9 55 -7 84 -44 84 -16 0 -34
6 -40 14 -16 19 -90 30 -107 15 -24 -20 -262 -22 -365 -3 -50 9 -109 14 -130
11 -22 -3 -54 -1 -72 4 -17 5 -56 11 -87 14 -89 9 -221 93 -316 201 -84 95
-110 138 -129 213 -19 76 -47 134 -82 170 -42 45 -76 109 -69 134 3 13 23 44
44 68 27 32 42 63 55 114 10 39 25 75 33 81 8 6 14 17 14 23 0 14 58 6 105
-15 48 -21 315 -219 315 -234 0 -3 51 -53 113 -110 61 -56 154 -141 206 -189
51 -47 101 -91 110 -98 9 -6 40 -34 70 -62 121 -116 249 -144 443 -97 59 14
129 36 155 49 27 13 60 27 74 30 37 9 153 100 178 140 12 19 36 50 54 70 30
32 38 35 112 41 145 13 240 86 281 216 30 95 24 176 -23 304 -11 32 -12 59 -3
157 12 126 2 273 -25 377 -7 28 -11 61 -8 72 6 24 -39 141 -72 185 -14 17 -25
40 -25 50 0 48 -99 206 -174 279 -73 69 -284 196 -328 196 -13 0 -36 9 -53 20
-16 11 -36 20 -44 20 -7 0 -42 14 -77 31 l-63 31 -208 -10 -209 -10 -139 -47
c-100 -34 -159 -61 -210 -95 -38 -26 -97 -62 -130 -80 -33 -18 -73 -46 -89
-62 -17 -15 -35 -28 -41 -28 -6 0 -26 -11 -45 -25 -18 -13 -56 -32 -84 -41
-28 -9 -70 -27 -93 -40 -23 -13 -54 -24 -69 -24 -15 0 -51 -7 -80 -17 -38 -12
-61 -14 -84 -7 l-31 9 28 38 c33 44 398 409 463 463 224 185 365 259 585 310
98 22 133 25 320 26 288 2 407 -25 630 -141 208 -109 323 -203 478 -395 40
-49 96 -116 126 -148 54 -58 55 -59 39 -86 -28 -48 -39 -104 -27 -147 17 -66
31 -95 45 -95 8 0 14 -6 14 -14 0 -8 10 -18 22 -22 13 -4 27 -12 33 -19 26
-32 154 -47 197 -24 12 6 50 17 84 25 57 12 161 60 151 70 -2 3 -26 -7 -53
-20 -27 -14 -62 -28 -77 -32 l-29 -7 31 58 c48 89 39 158 -30 245 -53 67 -91
83 -190 78 -61 -2 -84 -8 -108 -26 -17 -12 -35 -22 -40 -22 -10 0 -98 99 -196
221 -108 134 -177 198 -293 276 -255 170 -439 233 -727 249 -106 6 -123 9 -95
16 168 44 401 57 645 38 136 -10 195 -24 195 -43 0 -7 -4 -29 -9 -50 -14 -60
4 -103 67 -165 88 -85 149 -102 222 -61 56 32 64 55 64 176 l0 105 -35 33
c-31 28 -44 33 -106 38 -83 7 -137 -4 -168 -33 -22 -21 -25 -21 -75 -6 -75 22
-334 39 -480 31 -107 -5 -404 -54 -430 -70 -5 -3 -57 -10 -117 -15 -95 -9
-162 -19 -240 -35 l-22 -5 22 23 c24 26 344 186 477 239 32 13 157 38 191 38
24 0 143 33 344 95 44 13 127 31 185 40 58 9 123 22 145 27 90 24 124 26 245
12 69 -8 213 -19 320 -24 246 -13 383 -33 463 -66 34 -15 85 -33 112 -41 28
-8 72 -24 98 -36 44 -18 48 -23 43 -46 -35 -156 -1 -283 125 -476 29 -44 55
-82 58 -85 4 -3 22 -25 41 -50 57 -75 225 -248 292 -302 61 -50 153 -98 212
-112 57 -14 116 22 116 72 0 41 -32 121 -65 165 -19 25 -35 50 -35 55 0 5 23
13 52 16 61 8 90 23 141 69 33 31 37 40 37 84 0 28 -5 65 -11 82 -11 31 -10
34 23 61 93 77 69 198 -59 306 -65 55 -169 119 -218 134 -22 7 -65 21 -95 31
-30 10 -73 21 -95 25 -22 3 -62 12 -90 20 -91 25 -188 33 -252 20 -59 -13
-117 -38 -128 -56 -10 -16 -41 -12 -81 10 -20 12 -59 27 -87 35 -29 7 -81 25
-117 40 -78 32 -244 61 -400 70 -170 9 -239 15 -295 24 l-50 9 65 0 c36 0 91
-3 123 -7 59 -7 78 3 30 16 -42 12 -401 7 -463 -6 -30 -6 -129 -18 -220 -26
-91 -8 -212 -23 -270 -34 -58 -11 -128 -20 -155 -21 -90 0 -226 -37 -326 -87
-150 -75 -268 -147 -356 -218 -58 -47 -101 -72 -145 -86 -77 -25 -158 -70
-219 -120 -26 -21 -69 -51 -96 -67 -94 -56 -143 -82 -143 -76 0 14 89 130 150
196 104 112 263 219 510 343 41 21 98 52 125 70 83 54 237 146 290 175 409
221 500 276 550 330 l30 33 -155 -7 c-85 -3 -211 -9 -280 -12 -174 -7 -391
-31 -480 -54 -153 -39 -396 -140 -480 -200 -15 -11 -31 -20 -34 -20 -14 0
-178 -114 -266 -185 -173 -139 -452 -455 -499 -565 -13 -30 -32 -73 -42 -95
-51 -112 -86 -248 -114 -437 -6 -36 -7 -37 -31 -26 -24 11 -26 16 -20 54 3 24
21 82 40 131 19 48 40 113 47 143 6 30 24 81 40 112 16 32 29 63 29 69 0 16
60 138 85 174 12 17 63 113 114 215 109 217 112 221 216 325 44 44 104 116
132 160 29 44 69 105 90 135 47 68 232 260 251 260 8 0 27 -9 43 -21 41 -29
189 -58 269 -53 63 5 180 29 210 45 8 4 42 17 75 30 79 29 277 133 340 178
183 130 345 296 345 354 0 34 -31 55 -92 63 l-47 6 23 42 c72 127 21 205 -135
206 l-67 0 5 43 c6 49 -10 87 -53 131 -85 84 -245 98 -397 34 -71 -31 -51 -32
34 -2 63 22 87 25 167 22 66 -3 97 -8 108 -20 14 -14 11 -15 -35 -10 -30 2
-80 -2 -119 -11 -37 -9 -93 -21 -124 -27 -80 -16 -168 -48 -203 -74 -50 -37
-61 -41 -35 -11 56 64 -59 -36 -136 -118 -75 -80 -195 -248 -193 -271 0 -6 6
-3 12 8 53 83 163 228 197 261 l43 40 -19 -33 c-10 -18 -37 -54 -59 -80 -23
-26 -50 -60 -62 -77 -60 -87 -135 -255 -159 -360 l-14 -60 4 75 c2 53 11 94
30 139 15 35 25 65 23 67 -8 8 -47 -93 -63 -163 -27 -113 -2 -247 55 -297 21
-19 29 -46 13 -46 -5 0 -31 -23 -58 -50 -27 -28 -71 -72 -97 -98 -27 -26 -96
-118 -153 -204 -72 -108 -122 -172 -160 -205 -31 -26 -73 -72 -94 -103 -39
-57 -153 -272 -183 -345 -10 -22 -41 -77 -70 -121 -29 -45 -59 -101 -67 -125
-7 -24 -24 -66 -36 -92 -12 -26 -30 -77 -39 -112 -9 -36 -29 -93 -45 -128
l-29 -62 0 45 c0 98 18 200 53 310 21 63 42 131 46 150 5 19 17 69 28 110 28
109 68 283 103 455 17 83 38 179 45 215 8 36 19 94 25 130 5 36 16 101 23 145
8 44 14 89 14 100 0 11 4 52 11 90 6 39 11 88 11 110 0 24 9 53 23 74 47 72
98 157 113 190 17 38 111 178 125 186 8 5 24 29 101 150 14 22 92 108 174 190
82 83 162 168 178 189 59 78 301 314 341 332 22 10 65 36 95 59 30 23 78 55
105 70 28 16 52 32 55 36 3 3 15 11 28 18 l23 12 -25 29 c-25 31 -53 148 -43
185 2 11 5 2 6 -20 l1 -40 25 53 c13 28 26 52 28 52 3 0 1 -19 -4 -41 -13 -57
4 -143 37 -186 14 -19 44 -48 67 -64 30 -22 35 -29 21 -30 -38 -2 30 -17 82
-18 36 -1 59 -8 83 -26 91 -66 240 -52 419 42 113 58 179 83 224 83 57 0 265
59 339 96 63 31 146 99 164 134 8 16 15 45 15 64 0 27 -7 40 -37 65 l-38 31
64 62 c72 71 104 115 124 174 26 73 -12 138 -108 184 -106 51 -464 3 -810
-109 -66 -21 -122 -36 -125 -33 -3 2 0 7 7 9 7 2 28 16 47 31 143 109 227 155
311 170 116 21 205 23 302 6 52 -8 97 -13 100 -11 9 10 -18 47 -45 61 -30 16
-129 36 -175 36 -15 0 -35 7 -43 15 -19 19 -51 19 -88 -1z m174 -62 c22 -9 19
-11 -26 -11 -28 -1 -80 -3 -115 -6 l-64 -5 60 29 c54 26 62 27 90 16 16 -7 41
-18 55 -23z m-618 -192 c-75 -71 -135 -116 -185 -138 l-28 -12 25 33 c48 63
212 185 251 186 6 1 -23 -31 -63 -69z m745 64 c-3 -3 -12 -4 -19 -1 -8 3 -5 6
6 6 11 1 17 -2 13 -5z m228 -49 c25 -14 49 -34 55 -45 27 -51 -4 -131 -83
-210 -81 -81 -89 -86 -140 -67 -89 33 -185 37 -425 17 -125 -11 -240 -22 -257
-26 -75 -15 -196 -60 -258 -95 -38 -22 -72 -39 -76 -39 -16 0 -61 -58 -84
-107 -21 -46 -23 -59 -15 -114 4 -34 6 -64 4 -67 -8 -8 -46 9 -75 34 -32 26
-54 81 -53 126 1 47 76 159 182 271 87 91 114 113 174 141 65 31 212 74 326
97 24 5 69 18 100 28 114 39 318 71 508 79 64 3 79 0 117 -23z m-520 5 c-11
-5 -27 -9 -35 -9 -9 0 -8 4 5 9 11 5 27 9 35 9 9 0 8 -4 -5 -9z m-576 -50
c-13 -12 -56 -45 -95 -75 -39 -29 -82 -66 -95 -82 -29 -35 -98 -88 -104 -81
-9 9 159 163 235 216 71 51 107 64 59 22z m421 10 c-8 -5 -22 -10 -30 -10 -13
0 -13 1 0 10 8 5 22 10 30 10 13 0 13 -1 0 -10z m-570 -270 c-12 -16 -26 -30
-33 -30 -6 0 2 14 18 30 16 17 30 30 33 30 2 0 -6 -13 -18 -30z m993 -56 c32
-9 56 -22 54 -28 -8 -24 -132 -115 -247 -181 -68 -38 -155 -91 -194 -116 -103
-67 -124 -76 -233 -104 -140 -35 -170 -38 -247 -23 -63 12 -70 16 -99 56 -24
32 -32 56 -35 100 -4 55 -2 59 34 99 49 54 142 106 266 149 89 31 145 44 283
65 88 13 353 3 418 -17z m-1144 -53 c-19 -22 -36 -38 -38 -36 -2 2 11 22 29
45 18 23 35 39 37 36 3 -3 -10 -23 -28 -45z m1326 -1 c16 -16 27 -31 24 -33
-2 -1 -18 12 -36 30 -17 18 -28 33 -24 33 4 0 20 -13 36 -30z m-34 -20 c36
-36 30 -55 -34 -101 -70 -51 -145 -84 -307 -135 l-45 -14 26 20 c15 11 70 57
123 102 131 111 189 158 199 158 5 0 22 -13 38 -30z m-1267 -20 c-15 -22 -29
-40 -31 -40 -5 0 3 15 29 53 30 43 31 32 2 -13z m1256 -111 c-30 -26 -140 -82
-147 -76 -4 4 154 94 167 96 3 0 -6 -9 -20 -20z m-365 -74 c-16 -14 -33 -25
-38 -25 -4 0 -32 -16 -62 -37 -31 -20 -58 -34 -60 -31 -5 5 173 117 185 117 3
0 -8 -11 -25 -24z m195 -14 c-8 -5 -28 -11 -45 -14 l-30 -6 30 14 c34 16 72
21 45 6z m-1003 -177 c-3 -3 -12 -4 -19 -1 -8 3 -5 6 6 6 11 1 17 -2 13 -5z
m433 -14 c-8 -5 -19 -10 -25 -10 -5 0 -3 5 5 10 8 5 20 10 25 10 6 0 3 -5 -5
-10z m-2087 -390 c14 -16 30 -44 36 -62 52 -159 77 -484 60 -763 l-10 -170
-44 -65 c-49 -73 -99 -178 -110 -230 -3 -19 -15 -57 -25 -85 -32 -86 -90 -279
-90 -299 0 -11 -2 -17 -5 -14 -6 6 29 430 44 543 6 39 17 122 27 185 23 156
27 738 5 764 -8 9 -16 14 -19 11 -3 -2 -6 -145 -7 -317 -1 -288 -6 -367 -35
-578 -6 -41 -14 -120 -20 -175 -5 -55 -14 -147 -20 -205 -6 -58 -17 -181 -25
-275 -23 -257 -30 -311 -42 -326 -14 -18 -57 -129 -77 -199 -33 -115 -33 -365
-1 -678 l8 -73 -68 3 -69 3 -48 130 c-27 72 -46 114 -43 95 4 -23 3 -30 -3
-20 -15 25 -24 73 -12 65 15 -9 13 4 -15 86 -49 145 -58 273 -50 794 4 259 11
499 16 535 6 36 16 110 24 165 26 192 67 347 155 597 91 257 193 442 296 540
60 56 129 64 167 18z m1497 -254 c0 -2 -15 -9 -32 -15 -30 -10 -31 -9 -14 4
18 14 46 20 46 11z m160 -45 c37 -26 63 -77 56 -106 -4 -14 -13 -25 -21 -25
-28 0 -192 -60 -265 -98 -223 -114 -431 -280 -445 -355 -9 -47 14 -77 58 -77
66 0 247 84 415 192 144 93 242 183 278 255 16 32 34 61 39 65 14 11 119 10
149 -2 38 -14 58 -52 51 -93 -9 -47 -72 -117 -110 -121 -154 -19 -384 -133
-482 -239 -51 -56 -64 -94 -38 -114 11 -7 29 -13 42 -13 47 0 144 41 215 91
40 28 113 78 163 112 49 34 104 77 123 96 28 28 43 34 90 38 49 4 60 2 75 -15
12 -14 17 -28 12 -42 -9 -29 -106 -131 -157 -165 -24 -16 -54 -39 -68 -51 -14
-12 -54 -37 -90 -56 -36 -20 -103 -57 -150 -85 -47 -27 -101 -55 -120 -62 -19
-7 -66 -26 -105 -42 -175 -71 -366 -92 -448 -47 -105 58 -119 228 -32 408 6
14 24 52 40 85 39 81 173 212 291 284 49 30 125 83 169 116 99 76 101 77 145
86 46 9 89 2 120 -20z m-324 6 c-103 -65 -241 -172 -298 -231 -74 -74 -74 -62
-3 40 51 72 109 125 167 155 70 36 181 66 134 36z m49 -55 c-78 -67 -215 -162
-232 -162 -19 0 99 95 142 115 28 13 57 30 64 39 7 9 18 16 24 16 7 0 7 -3 2
-8z m285 -154 c0 -36 -129 -166 -245 -250 -71 -51 -290 -161 -342 -172 -69
-15 -67 31 5 93 85 75 251 191 271 191 5 0 17 7 25 16 22 21 246 134 268 134
10 0 18 -6 18 -12z m-264 -73 c-11 -8 -25 -15 -30 -15 -6 1 0 7 14 15 32 19
40 18 16 0z m-146 -89 c0 -2 -25 -20 -55 -40 -30 -20 -57 -41 -60 -46 -3 -6
-11 -10 -18 -10 -16 0 7 20 72 64 52 35 61 40 61 32z m520 -50 c0 -3 -17 -10
-37 -17 -21 -6 -69 -27 -107 -46 -38 -18 -71 -31 -73 -29 -6 6 29 24 122 63
79 32 95 37 95 29z m-860 -56 c-6 -12 -14 -19 -17 -17 -2 3 1 15 7 27 6 12 14
19 17 17 2 -3 -1 -15 -7 -27z m859 4 c-58 -63 -251 -178 -331 -198 -40 -9 -35
3 25 55 58 50 161 110 252 145 77 30 84 29 54 -2z m-669 -7 c0 -2 -15 -14 -32
-27 l-33 -23 24 26 c21 23 41 35 41 24z m340 -110 c0 -2 -10 -12 -22 -23 l-23
-19 19 23 c18 21 26 27 26 19z m-1381 -312 c-5 -60 -13 -126 -19 -145 -6 -19
-21 -98 -35 -175 -13 -77 -31 -171 -40 -210 -8 -38 -22 -106 -31 -150 -42
-220 -78 -366 -151 -615 -33 -110 -49 -191 -59 -280 -7 -69 -20 -147 -29 -175
-15 -49 -15 -46 -10 98 3 81 10 159 15 173 6 14 10 52 10 85 0 32 7 98 14 146
8 49 20 160 26 247 6 88 13 163 16 168 7 11 44 159 55 218 15 86 28 137 64
256 20 65 40 133 45 149 43 153 67 218 98 266 20 31 38 56 38 55 1 0 -2 -50
-7 -111z m1196 -84 c-6 -4 -23 -11 -40 -14 l-30 -6 30 14 c35 16 54 19 40 6z
m820 -201 c-9 -15 -82 -63 -165 -107 -230 -124 -322 -175 -380 -212 -36 -22
-83 -50 -104 -62 -22 -12 -64 -38 -95 -59 -31 -21 -96 -59 -146 -86 -156 -82
-308 -169 -374 -214 -71 -47 -216 -190 -264 -260 -64 -92 -173 -210 -364 -392
-108 -104 -202 -188 -208 -188 -18 0 -45 34 -55 71 -11 38 2 126 26 169 7 14
20 42 28 62 20 51 184 265 253 329 31 30 82 79 112 110 90 90 256 219 371 287
99 60 323 169 435 214 55 21 109 43 120 48 11 5 38 17 60 26 22 9 35 18 28 21
-46 17 -596 -232 -728 -330 -158 -118 -200 -153 -317 -261 -252 -234 -395
-438 -422 -606 -7 -45 7 -106 33 -141 12 -15 18 -35 15 -43 -5 -14 -11 -12
-36 9 -16 14 -34 25 -39 25 -5 0 -9 15 -9 34 0 52 50 296 70 341 9 22 30 71
45 109 15 38 31 77 36 85 5 9 15 32 23 51 13 32 52 81 225 280 77 89 255 250
332 300 30 19 78 52 105 72 68 50 259 149 382 198 161 64 287 90 502 101 102
6 214 14 250 18 97 12 262 13 255 1z m100 -430 c-3 -5 -19 -10 -34 -10 -16 0
-49 -9 -73 -20 -25 -11 -84 -29 -131 -40 -47 -11 -100 -27 -119 -34 -18 -8
-87 -22 -152 -31 -75 -10 -139 -25 -170 -40 -28 -13 -80 -35 -116 -50 -36 -15
-87 -38 -115 -52 -50 -24 -50 -24 -21 -1 33 26 114 72 256 146 101 53 144 63
335 82 55 5 134 17 175 26 41 9 95 20 120 24 25 4 46 8 48 9 2 0 0 -3 -3 -9z
m1735 -94 c0 -2 -13 -6 -30 -8 -16 -3 -30 -1 -30 4 0 4 14 8 30 8 17 0 30 -2
30 -4z m181 -40 c80 -19 245 -82 309 -118 30 -18 81 -51 113 -75 31 -24 61
-43 67 -43 17 0 79 -92 86 -128 6 -31 3 -39 -25 -64 -17 -15 -35 -28 -41 -28
-5 0 -33 33 -64 73 -30 39 -91 104 -136 142 -45 39 -87 75 -93 81 -24 22 -64
43 -111 58 -44 15 -51 15 -72 1 -18 -12 -24 -24 -24 -54 0 -113 265 -323 438
-346 32 -4 52 -12 52 -20 0 -7 3 -32 6 -57 5 -38 3 -48 -21 -76 -15 -18 -41
-40 -58 -49 -32 -16 -115 -21 -154 -9 -12 4 -67 58 -123 120 -128 144 -279
256 -345 256 -35 0 -47 -34 -28 -80 16 -41 123 -152 208 -217 65 -50 210 -123
244 -123 30 0 122 -159 129 -221 6 -59 -9 -66 -83 -38 -112 42 -297 182 -407
309 -98 112 -138 171 -176 254 -37 80 -82 240 -82 292 0 75 55 147 123 163 63
13 204 12 268 -3z m-4383 -188 c-8 -50 -17 -126 -34 -275 -4 -35 -11 -63 -15
-63 -22 0 -3 243 26 345 20 69 34 64 23 -7z m4554 14 c72 -38 168 -121 227
-196 29 -37 51 -69 49 -71 -6 -6 -91 21 -129 41 -121 62 -259 195 -259 250 0
21 48 11 112 -24z m-6257 -15 c22 -15 49 -27 61 -27 12 0 42 -16 66 -36 42
-36 56 -62 30 -56 -7 1 -30 4 -50 7 -21 3 -62 9 -91 15 -30 5 -72 10 -95 10
-22 1 -52 7 -66 15 -15 8 -53 14 -92 15 l-68 0 -71 -67 c-66 -64 -134 -132
-322 -327 -67 -71 -80 -89 -97 -147 -12 -40 -30 -75 -46 -90 l-27 -24 7 30 c4
17 13 59 21 95 18 82 50 182 78 240 30 62 261 288 337 330 95 52 88 50 240 47
139 -2 147 -3 185 -30z m4485 -13 c0 -13 -55 -49 -70 -46 -33 8 -33 22 1 36
35 16 69 20 69 10z m109 -50 c33 -42 28 -51 -26 -44 -51 7 -103 28 -103 41 0
5 17 17 38 28 42 21 58 17 91 -25z m37 28 c28 -22 44 -54 44 -87 0 -37 -23
-27 -31 14 -4 18 -19 46 -35 62 -31 32 -14 41 22 11z m-215 -63 c-25 -86 -31
-117 -26 -136 8 -35 -2 -27 -25 17 -23 44 -24 60 -10 112 10 33 13 36 38 28
16 -4 25 -13 23 -21z m78 -15 c3 -2 -7 -17 -22 -32 -15 -15 -33 -45 -41 -67
l-15 -40 0 40 c-1 22 4 57 10 78 10 36 13 38 37 32 15 -4 29 -9 31 -11z
m-4082 -53 c107 -42 309 -171 266 -171 -6 0 -60 23 -119 51 -60 28 -125 57
-145 64 -19 7 -60 29 -92 49 -31 20 -61 36 -67 36 -5 0 -10 4 -10 9 0 13 80
-5 167 -38z m2528 39 c-7 -11 -128 -80 -140 -80 -15 0 7 17 69 54 60 36 82 44
71 26z m1669 -30 c52 -22 56 -36 22 -73 -41 -44 -124 -75 -166 -62 -56 18 7
155 71 155 15 0 48 -9 73 -20z m-3315 -35 c0 -5 -4 -3 -9 5 -5 8 -9 22 -9 30
0 16 17 -16 18 -35z m1630 -14 c-124 -62 -226 -132 -354 -244 -90 -78 -400
-396 -453 -464 -46 -57 -58 -67 -72 -58 -13 8 61 126 119 190 164 182 318 331
408 392 120 83 141 95 223 135 139 68 204 97 215 97 6 0 -33 -21 -86 -48z
m3074 -32 c41 -28 118 -91 171 -141 127 -120 128 -134 4 -73 -69 34 -226 144
-261 183 -9 10 -20 33 -23 50 -6 28 -4 32 14 32 11 0 54 -23 95 -51z m-5818
-23 c73 -21 154 -52 163 -61 4 -4 -3 -5 -15 -1 -49 15 -231 44 -316 51 -26 2
-54 6 -62 9 -9 3 -61 -1 -118 -9 -124 -18 -124 -18 -110 -4 6 6 39 19 74 28
50 13 88 15 198 9 75 -4 159 -14 186 -22z m4477 -35 c-10 -14 -30 -32 -43 -38
-33 -17 -101 -16 -125 2 -18 14 -18 14 7 15 45 0 115 30 145 61 28 30 29 30
32 8 2 -12 -5 -34 -16 -48z m-4246 -57 c18 -14 18 -15 -6 -8 -31 8 -50 24 -29
24 8 0 24 -7 35 -16z m268 -2 c30 -18 85 -82 70 -82 -5 1 -33 23 -63 50 -56
51 -58 62 -7 32z m-689 -16 l40 -12 -49 -17 c-27 -9 -58 -17 -68 -17 -10 0
-26 -4 -36 -9 -9 -5 -48 -24 -87 -42 -38 -18 -93 -48 -121 -65 -53 -33 -143
-121 -144 -140 0 -7 -10 -18 -23 -27 -12 -8 -31 -32 -42 -53 -32 -62 -73 -121
-117 -167 -22 -23 -46 -56 -54 -74 -7 -17 -19 -35 -24 -38 -20 -12 -100 -129
-100 -145 0 -8 -7 -26 -16 -38 -40 -58 -66 -274 -40 -337 9 -20 16 -56 16 -79
0 -52 21 -128 48 -183 12 -23 22 -52 22 -64 0 -23 36 -89 49 -89 4 0 17 -13
29 -30 33 -44 13 -36 -38 16 -25 25 -57 57 -72 71 -16 15 -28 33 -28 41 0 7
-21 41 -46 75 -59 77 -72 108 -80 193 -4 38 -11 74 -15 80 -10 13 41 281 63
334 8 19 22 69 32 111 20 92 67 173 159 280 37 44 75 95 83 114 31 74 186 205
243 205 11 0 33 11 49 25 17 14 39 25 50 25 10 0 30 8 43 19 28 22 136 49 194
49 22 0 58 -5 80 -12z m636 -87 c5 -11 6 -19 1 -19 -13 0 -62 47 -62 60 0 14
48 -18 61 -41z m-323 2 c9 -5 38 -15 64 -21 26 -7 56 -21 67 -31 11 -10 23
-19 26 -19 19 0 73 -65 122 -147 30 -51 61 -97 69 -104 8 -6 14 -17 14 -23 0
-7 13 -22 30 -34 16 -12 47 -49 69 -81 70 -102 122 -137 251 -165 14 -3 34
-12 45 -19 19 -14 18 -16 -16 -73 -40 -66 -45 -96 -22 -130 10 -17 12 -28 5
-37 -9 -11 -15 -35 -29 -115 -6 -36 16 -152 29 -152 4 0 8 -8 8 -19 0 -10 12
-35 26 -56 27 -41 26 -65 -5 -65 -18 0 -135 -61 -155 -81 -6 -5 -19 -9 -30 -9
-12 0 -32 -9 -46 -20 -14 -11 -33 -20 -42 -20 -9 0 -32 -8 -50 -19 -19 -10
-74 -24 -128 -31 -137 -17 -268 -45 -323 -69 -27 -12 -55 -21 -63 -21 -8 0
-42 -14 -75 -31 -43 -21 -96 -36 -178 -50 -64 -11 -140 -26 -169 -35 -45 -12
-66 -13 -134 -3 -68 10 -87 17 -117 44 -20 17 -62 45 -94 61 -60 30 -197 148
-197 169 0 7 -13 52 -29 101 -19 62 -27 102 -24 131 3 24 -2 63 -11 90 -27 85
7 306 56 357 7 8 31 39 53 71 22 32 73 96 112 144 40 47 73 92 73 99 0 7 18
36 40 65 22 29 52 69 67 89 16 20 36 37 45 38 9 0 26 14 38 30 12 17 38 39 58
50 116 59 188 90 211 90 15 0 32 5 38 11 33 33 276 64 321 40z m6302 -24 c0
-2 -10 -12 -22 -23 l-23 -19 19 23 c18 21 26 27 26 19z m-5903 -41 c40 -35 25
-40 -17 -5 -19 15 -30 29 -23 29 7 0 25 -11 40 -24z m5838 -16 c-3 -5 -12 -10
-18 -10 -7 0 -6 4 3 10 19 12 23 12 15 0z m-50 -20 c-11 -5 -31 -9 -45 -9 -23
0 -23 1 -5 9 11 5 31 9 45 9 23 0 23 -1 5 -9z m-2820 -24 c78 -27 62 -33 -30
-11 -91 22 -284 20 -381 -5 -43 -11 -103 -23 -134 -25 l-55 -5 83 29 c54 20
93 28 115 25 17 -3 42 -2 54 3 12 4 80 9 150 10 113 3 136 0 198 -21z m-1472
-120 c-55 -57 -119 -136 -142 -175 -23 -39 -45 -71 -49 -71 -4 0 -15 7 -26 15
-28 21 -14 57 32 83 21 12 92 75 157 141 65 66 121 118 123 116 3 -2 -40 -51
-95 -109z m1668 59 c112 -52 271 -157 257 -170 -3 -3 -19 6 -36 20 -17 14 -45
32 -64 39 -18 8 -44 26 -57 40 -14 14 -28 26 -32 26 -5 0 -43 16 -86 35 -43
19 -68 35 -57 35 12 0 46 -11 75 -25z m-358 -40 c158 -14 318 -60 407 -117 20
-13 50 -32 68 -43 17 -11 32 -24 32 -30 0 -5 26 -30 57 -55 84 -67 104 -90
147 -168 22 -40 47 -74 58 -78 28 -9 22 -31 -24 -80 l-41 -44 -27 47 c-79 146
-204 265 -343 328 -77 35 -194 56 -266 49 -49 -6 -61 -4 -61 8 0 15 -167 58
-227 58 -18 0 -42 4 -55 9 -13 6 -56 15 -95 21 -95 15 -101 50 -9 50 17 0 64
9 104 20 39 11 90 20 111 20 22 0 43 5 46 10 4 6 14 9 23 6 10 -2 52 -7 95
-11z m-2733 -48 c50 -43 140 -146 140 -160 0 -12 -73 31 -111 65 -33 31 -109
128 -109 140 0 14 35 -6 80 -45z m643 -42 l6 -40 -14 35 c-7 19 -14 46 -14 60
0 22 1 23 8 5 5 -11 11 -38 14 -60z m62 -13 c-8 -8 -12 0 -19 38 l-7 35 16
-34 c8 -19 13 -36 10 -39z m4736 11 c13 -16 12 -17 -3 -4 -10 7 -18 15 -18 17
0 8 8 3 21 -13z m-4583 -149 c-1 -154 -4 -156 -57 -30 -16 39 -37 88 -45 108
l-16 37 32 10 c18 5 45 10 60 10 l28 1 -2 -136z m3459 104 c10 -7 26 -20 36
-28 25 -20 54 -77 62 -124 10 -50 -10 -112 -49 -154 -29 -32 -34 -34 -82 -29
-61 6 -129 49 -166 104 -26 37 -49 143 -31 143 4 0 27 -7 50 -15 86 -30 136
29 99 117 -7 14 -3 15 29 8 19 -4 43 -14 52 -22z m1238 -27 c-5 -4 -95 48 -95
54 0 3 22 -7 49 -22 27 -16 48 -30 46 -32z m-1333 13 c8 -18 8 -31 -1 -50 -11
-24 -16 -26 -53 -21 -22 3 -47 12 -56 20 -13 13 -13 18 2 38 35 50 88 56 108
13z m-3467 -79 c21 -49 39 -96 42 -102 9 -22 -26 -14 -37 8 -17 31 -58 177
-52 184 7 7 5 11 47 -90z m3335 74 c-7 -11 -14 -18 -17 -15 -3 3 0 12 7 21 18
21 23 19 10 -6z m-2989 -44 c29 -15 38 -38 19 -50 -5 -3 -26 -31 -46 -61 -24
-36 -48 -60 -71 -69 -61 -26 -67 -22 -59 40 3 30 9 81 12 113 9 87 7 85 65 62
28 -11 64 -27 80 -35z m1513 25 c7 -7 -8 -10 -44 -10 -30 -1 -75 -5 -100 -11
-25 -5 -67 -14 -93 -20 -26 -6 -69 -19 -95 -31 -26 -11 -78 -31 -115 -44 -38
-13 -92 -37 -120 -53 -59 -34 -272 -112 -281 -103 -3 3 -6 11 -6 17 0 13 93
108 137 141 28 20 134 42 218 45 22 1 88 17 146 35 58 19 125 39 150 44 52 11
189 4 203 -10z m1448 -67 c-5 -61 15 -120 55 -164 37 -41 99 -79 128 -79 8 0
15 -5 15 -11 0 -17 -91 -4 -137 20 -46 23 -88 66 -102 104 -16 41 -13 113 5
148 21 41 39 32 36 -18z m-3371 -95 c-29 -12 -51 -8 -51 9 0 9 -5 31 -12 49
-9 26 -9 36 2 49 11 14 17 9 45 -42 28 -50 30 -59 16 -65z m2365 62 c130 -63
231 -164 320 -322 27 -47 32 -64 23 -74 -17 -20 -21 -18 -70 29 -72 68 -169
152 -182 156 -7 2 -40 16 -75 32 -35 16 -65 29 -68 29 -2 0 -25 13 -51 29 -93
57 -139 65 -276 52 -124 -12 -212 -31 -270 -56 -103 -44 -181 -68 -252 -75
-114 -13 -146 -24 -235 -85 l-79 -54 -14 27 c-8 15 -21 40 -30 56 -9 16 -14
33 -12 37 3 4 58 24 122 44 65 20 190 61 279 90 173 58 352 102 452 112 34 3
62 10 62 14 0 5 61 7 136 5 134 -5 136 -5 220 -46z m-4808 33 c-1 -5 -32 -53
-68 -108 -36 -55 -76 -116 -88 -135 -12 -19 -22 -32 -22 -29 0 19 161 279 173
279 5 0 7 -3 5 -7z m2933 -61 c13 -23 14 -32 4 -45 -14 -19 -85 -24 -85 -6 0
12 49 79 59 79 3 0 13 -13 22 -28z m239 -51 c0 -4 -19 -7 -42 -7 -24 -1 -56
-5 -73 -9 -28 -7 -29 -6 -10 8 30 22 125 29 125 8z m-3249 -127 c-52 -147 -58
-161 -70 -168 -26 -16 -51 -318 -31 -384 13 -49 -5 -38 -28 16 -31 71 -41 127
-42 213 0 96 25 180 81 274 41 68 119 168 126 162 1 -2 -15 -53 -36 -113z
m4699 90 c14 -4 41 -17 60 -29 30 -18 121 -63 220 -109 14 -6 62 -47 108 -91
78 -76 83 -84 101 -150 13 -50 20 -123 25 -260 3 -104 10 -210 15 -234 8 -41
6 -47 -25 -91 -18 -26 -55 -65 -81 -88 -29 -26 -43 -46 -37 -51 14 -13 80 34
112 79 35 50 50 56 62 24 27 -70 -3 -128 -72 -138 -70 -11 -138 -49 -221 -124
-104 -94 -205 -141 -307 -142 -87 0 -184 79 -460 376 -80 87 -92 95 -210 153
-89 43 -161 70 -250 92 -69 17 -127 33 -129 35 -2 2 10 20 27 41 53 68 74 158
52 232 -7 27 -6 46 7 83 15 40 16 53 5 80 -16 42 -1 64 75 116 87 58 96 62
191 73 90 11 174 35 282 81 47 20 83 28 230 47 117 16 153 15 220 -5z m-2523
-138 c-3 -8 -19 -23 -35 -35 l-30 -21 6 22 c3 13 17 38 31 56 24 29 26 31 29
11 2 -11 1 -26 -1 -33z m738 37 c-4 -10 -11 -42 -16 -71 -8 -54 -31 -92 -55
-92 -23 0 -44 43 -44 92 0 43 2 48 33 62 29 13 56 21 81 25 4 0 5 -7 1 -16z
m-385 -45 c0 -14 -19 1 -31 25 -12 22 -12 22 10 3 11 -11 21 -23 21 -28z m85
31 c11 -17 -1 -21 -15 -4 -8 9 -8 15 -2 15 6 0 14 -5 17 -11z m-65 -101 c0
-10 -129 74 -130 84 0 3 8 8 18 11 16 3 112 -77 112 -95z m850 32 c0 -11 -64
-50 -81 -50 -7 0 2 15 21 33 32 29 60 38 60 17z m194 -16 c9 -8 16 -23 16 -32
0 -13 -5 -11 -20 8 -29 37 -26 55 4 24z m-1294 -9 c0 -2 -10 -10 -22 -16 -21
-11 -22 -11 -9 4 13 16 31 23 31 12z m28 -67 c7 -7 12 -21 12 -33 0 -21 -43
-75 -60 -75 -16 0 -11 74 6 98 17 25 25 27 42 10z m1134 -3 c25 -5 39 -16 55
-44 l21 -37 -35 -42 c-31 -38 -121 -109 -127 -100 -19 31 -46 130 -46 165 1
21 69 76 86 69 7 -3 28 -8 46 -11z m-767 -63 c34 -30 25 -27 -19 6 -16 12 -25
22 -20 22 5 0 23 -13 39 -28z m985 -13 c0 -24 -4 -38 -10 -34 -5 3 -10 22 -10
41 0 19 5 34 10 34 6 0 10 -18 10 -41z m-1220 -93 c0 -3 -6 -6 -14 -6 -8 0
-21 -8 -28 -18 -23 -33 -56 -45 -88 -32 -52 21 -77 70 -36 70 6 0 29 17 50 39
l38 39 39 -43 c21 -23 39 -45 39 -49z m3000 -94 c19 -111 -8 -205 -100 -351
-22 -36 -40 -62 -40 -58 0 4 0 8 -1 10 -10 29 -14 98 -8 140 7 42 5 68 -11
123 -19 69 -19 69 0 86 11 9 20 24 20 33 0 13 6 16 25 13 18 -4 25 -1 25 11 0
13 31 106 58 171 3 8 9 -12 13 -45 4 -33 12 -93 19 -133z m-3315 127 c6 -28 1
-48 -10 -37 -3 2 -8 19 -11 36 -8 42 12 43 21 1z m945 13 c0 -12 -49 -37 -56
-29 -11 10 17 37 37 37 11 0 19 -4 19 -8z m490 -64 c0 -27 -6 -41 -22 -52 -22
-16 -89 -22 -101 -10 -3 4 19 33 51 65 61 63 72 63 72 -3z m-379 0 c-44 -19
-58 8 -18 35 20 14 22 13 28 -7 3 -14 0 -23 -10 -28z m-1041 -32 c0 -8 11 -28
25 -44 30 -36 35 -66 5 -37 -24 25 -54 95 -40 95 5 0 10 -6 10 -14z m161 -49
c-15 -15 -66 15 -69 41 l-4 23 42 -27 c25 -17 37 -31 31 -37z m203 37 c31 -30
20 -41 -36 -36 -29 2 -55 7 -58 9 -8 7 43 43 62 43 9 0 24 -7 32 -16z m1120
-105 c-21 -59 -67 -117 -102 -130 -18 -7 -41 -5 -80 6 -67 20 -59 33 29 45 58
8 68 13 101 50 21 23 43 58 50 77 8 23 14 30 16 19 2 -9 -4 -39 -14 -67z
m-1104 34 c7 -6 -81 -81 -104 -89 -21 -7 -69 25 -74 49 -2 9 6 25 18 37 18 18
28 20 88 14 37 -4 69 -9 72 -11z m-210 -3 c0 -5 -7 -10 -16 -10 -8 0 -12 5 -9
10 3 6 10 10 16 10 5 0 9 -4 9 -10z m880 -20 c0 -5 -4 -10 -10 -10 -5 0 -10 5
-10 10 0 6 5 10 10 10 6 0 10 -4 10 -10z m380 3 c-1 -5 -10 -19 -21 -32 -15
-19 -35 -26 -81 -33 -34 -4 -72 -15 -85 -23 -12 -8 -24 -15 -25 -15 -2 0 -4
23 -6 51 -3 50 -2 51 20 45 57 -17 124 -18 158 -3 19 8 36 16 38 16 1 1 2 -2
2 -6z m-1004 -98 c-11 -8 -27 -15 -35 -15 -11 0 -10 4 5 15 10 8 26 14 34 14
11 0 10 -3 -4 -14z m-336 -47 c0 -6 -72 -24 -170 -43 -32 -6 -34 -6 -15 8 19
14 102 50 135 60 16 4 50 -13 50 -25z m645 -8 c22 -10 48 -21 58 -24 32 -10
18 -64 -27 -108 -46 -43 -86 -49 -146 -20 -38 19 -52 48 -65 136 l-7 49 74 -7
c40 -3 91 -15 113 -26z m-206 -37 c5 -21 12 -52 16 -69 9 -44 39 -72 91 -86
50 -14 56 -23 19 -31 -35 -6 -123 58 -127 93 -2 17 -13 30 -35 40 -25 11 -33
21 -33 42 0 26 21 47 47 48 7 0 17 -17 22 -37z m1164 -112 c26 -11 53 -21 59
-21 6 0 61 -25 122 -55 116 -57 168 -100 236 -197 18 -26 41 -50 51 -53 9 -3
25 -18 35 -33 9 -15 31 -41 48 -59 17 -17 44 -48 60 -68 l29 -36 -42 22 c-24
12 -47 32 -53 44 -10 22 -46 45 -70 45 -15 0 -89 60 -168 136 -36 34 -75 65
-87 69 -13 3 -43 33 -69 65 -34 43 -59 64 -97 80 -117 49 -207 102 -207 122 0
4 24 -3 53 -16 28 -13 73 -33 100 -45z m-700 53 c8 -9 -18 -70 -38 -91 -9 -9
-23 -26 -32 -39 -8 -13 -20 -24 -26 -24 -6 0 1 13 16 28 30 31 35 60 12 68
-23 9 -18 20 18 42 36 23 41 25 50 16z m-2969 -96 c42 -46 76 -87 76 -93 0
-11 -123 108 -151 148 -41 55 2 24 75 -55z m2046 57 c-29 -16 -60 -19 -60 -6
0 9 27 16 70 19 8 1 4 -5 -10 -13z m1002 -7 c-9 -35 -35 -75 -65 -98 -35 -27
-34 -17 1 29 15 20 33 48 40 64 14 33 33 36 24 5z m2292 -29 c11 -55 6 -109
-11 -142 -10 -18 -25 -52 -33 -77 -11 -34 -23 -49 -50 -62 -93 -46 -130 -61
-135 -56 -10 9 58 139 102 197 23 30 57 81 75 113 18 31 36 58 39 58 4 0 9
-14 13 -31z m-3524 -31 c-14 -6 -63 -28 -108 -49 -46 -22 -98 -39 -115 -39
-26 0 -16 7 53 36 125 53 153 63 175 63 17 0 16 -2 -5 -11z m-430 -4 c0 -9
-44 -43 -56 -44 -5 0 -36 -23 -67 -51 -57 -51 -97 -69 -152 -69 -17 0 -55 -7
-85 -15 -62 -18 -101 -22 -249 -29 -96 -5 -107 -3 -143 18 l-39 23 78 6 c43 3
114 17 158 30 44 14 100 28 125 32 34 6 227 63 335 100 17 6 95 5 95 -1z
m1714 -41 c-4 -15 -20 -41 -36 -58 -15 -16 -35 -44 -43 -62 -15 -31 -14 -35 9
-82 14 -27 30 -52 36 -56 27 -17 91 -129 100 -176 5 -28 18 -67 27 -87 32 -66
151 -205 211 -244 31 -21 75 -50 97 -65 58 -38 110 -51 237 -58 62 -4 152 -13
200 -21 48 -8 119 -13 158 -10 38 2 70 2 70 0 0 -11 -84 -159 -91 -162 -5 -2
-9 -10 -9 -17 0 -8 -33 -48 -72 -90 -69 -72 -118 -149 -118 -187 0 -9 -9 -34
-21 -55 -11 -21 -14 -30 -6 -20 12 15 19 16 36 8 30 -17 38 -58 15 -82 -32
-31 -75 -34 -107 -7 -68 56 -97 87 -92 100 4 10 -15 29 -53 56 -32 22 -64 48
-72 56 -7 9 -20 16 -29 16 -11 0 -7 -8 14 -24 17 -13 27 -28 22 -32 -4 -4 -17
2 -30 13 -39 36 -53 37 -21 2 34 -37 53 -79 34 -79 -17 0 -132 62 -152 82 -11
11 -16 23 -12 29 7 12 -30 55 -61 71 -14 8 -11 1 9 -21 30 -31 31 -50 3 -34
-39 21 -149 128 -162 156 -8 18 -25 45 -37 60 -18 22 -20 30 -9 36 9 6 10 11
2 15 -6 4 -22 29 -35 55 -14 26 -32 53 -40 60 -9 8 -16 21 -16 29 0 9 -12 47
-27 85 -23 58 -33 72 -69 93 -44 26 -54 45 -54 105 0 23 -7 42 -20 54 -15 14
-19 26 -15 49 4 17 -1 74 -9 126 -9 52 -16 123 -16 158 0 59 1 62 24 62 63 0
174 81 214 156 17 32 24 30 16 -3z m-1587 -69 c-27 -14 -51 -23 -54 -20 -8 8
60 46 82 45 13 0 3 -9 -28 -25z m895 -34 c-2 -16 -6 -30 -8 -30 -2 0 -4 14 -4
30 0 17 4 30 8 30 5 0 7 -13 4 -30z m481 -27 c-7 -2 -21 -2 -30 0 -10 3 -4 5
12 5 17 0 24 -2 18 -5z m-460 -228 c15 -116 15 -121 -3 -139 -11 -11 -21 -18
-24 -15 -2 2 -6 78 -9 169 -4 138 -2 160 8 135 7 -16 20 -84 28 -150z m60 33
c2 -37 -1 -45 -10 -35 -7 7 -14 50 -17 97 l-6 85 16 -50 c8 -27 16 -71 17 -97z
m2460 114 c-17 -9 -41 -29 -53 -44 -12 -16 -28 -28 -37 -28 -13 0 -13 2 -2 17
23 27 91 73 108 73 9 -1 2 -8 -16 -18z m-2589 -19 c7 -37 9 -76 6 -148 -2 -59
-2 -59 -10 -20 -15 78 -22 195 -12 195 6 0 13 -12 16 -27z m-1579 -53 c3 -5
-3 -10 -14 -10 -11 0 -23 5 -26 10 -3 6 3 10 14 10 11 0 23 -4 26 -10z m1509
-62 c3 -13 6 -52 6 -88 -1 -61 -2 -64 -15 -40 -27 48 -31 150 -5 150 4 0 10
-10 14 -22z m366 2 c6 -11 8 -20 6 -20 -3 0 -10 9 -16 20 -6 11 -8 20 -6 20 3
0 10 -9 16 -20z m-170 -61 c0 -5 -4 -9 -8 -9 -5 0 -9 7 -9 15 0 8 4 12 9 9 4
-3 8 -9 8 -15z m-137 -56 c25 -79 29 -110 16 -118 -17 -11 -29 14 -29 60 0 22
-4 55 -9 73 -15 51 5 37 22 -15z m395 2 c9 -20 9 -25 -2 -25 -13 0 -26 20 -26
41 0 18 17 8 28 -16z m2097 5 c-10 -11 -23 -20 -28 -20 -6 0 -2 9 8 20 10 11
23 20 28 20 6 0 2 -9 -8 -20z m-2160 -75 c32 -49 52 -95 41 -95 -3 0 -12 13
-20 29 -8 15 -35 52 -60 81 -25 29 -43 57 -40 62 8 13 41 -19 79 -77z m-401
-18 c23 -31 27 -45 21 -73 -5 -29 -9 -33 -20 -24 -16 13 -30 54 -40 115 -7 43
-5 42 39 -18z m316 1 c0 -14 -19 1 -31 25 -12 22 -12 22 10 3 11 -11 21 -23
21 -28z m217 10 c13 -12 23 -16 23 -10 0 7 3 12 8 12 15 0 34 -44 39 -89 3
-25 9 -54 14 -63 8 -14 6 -18 -9 -18 -13 0 -29 20 -51 64 -18 36 -39 70 -47
76 -14 13 -20 50 -7 50 4 0 17 -10 30 -22z m1735 -18 c31 0 15 -10 -32 -21
-29 -7 -47 -6 -63 3 -21 12 -21 13 13 19 19 3 41 5 48 3 8 -2 23 -4 34 -4z
m-1914 -32 c11 -13 30 -45 41 -73 l21 -50 -20 25 c-42 50 -80 103 -80 112 0
15 16 9 38 -14z m130 -35 c11 -21 25 -55 32 -77 7 -21 28 -65 48 -98 44 -74
37 -86 -10 -16 -64 96 -91 151 -93 190 -1 21 -1 38 1 38 2 0 12 -17 22 -37z
m56 -33 c24 -38 35 -67 31 -78 -5 -14 -7 -14 -15 -2 -6 8 -10 23 -10 33 0 9
-4 17 -8 17 -7 0 -52 83 -52 96 0 14 20 -10 54 -66z m-134 -84 c0 -4 7 -6 15
-2 8 3 15 0 15 -6 0 -13 74 -133 103 -165 10 -12 17 -28 15 -35 -7 -19 -76 56
-113 121 -16 29 -38 67 -47 84 -9 16 -22 35 -27 40 -6 6 -11 16 -11 22 0 12
49 -46 50 -59z m280 -11 c0 -9 11 -34 56 -127 15 -33 5 -36 -21 -8 -17 19 -75
144 -75 162 0 5 9 3 20 -4 11 -7 20 -17 20 -23z m-1442 -39 c-7 -14 -38 -58
-69 -98 -31 -40 -68 -96 -82 -125 -15 -28 -35 -54 -44 -57 -10 -3 -34 -39 -53
-81 -19 -41 -39 -75 -43 -75 -14 0 3 60 38 135 19 38 47 100 63 137 26 58 39
74 99 117 37 28 74 60 82 73 19 30 27 7 9 -26z m721 -72 c-33 -84 -57 -122
-45 -69 9 35 66 158 72 153 2 -2 -10 -40 -27 -84z m667 25 c22 -37 50 -67 90
-94 56 -39 59 -43 64 -90 5 -45 8 -49 37 -57 24 -6 42 -24 77 -77 25 -38 46
-74 46 -80 0 -20 -60 20 -88 59 -15 19 -49 60 -77 90 -72 79 -222 317 -192
307 6 -2 26 -28 43 -58z m-1394 -62 c-5 -7 -13 -27 -17 -45 -7 -33 -69 -102
-92 -102 -19 0 2 48 36 85 15 17 38 45 51 64 13 19 26 29 28 22 2 -6 -1 -17
-6 -24z m1423 -57 c3 -5 1 -10 -4 -10 -6 0 -11 5 -11 10 0 6 2 10 4 10 3 0 8
-4 11 -10z m-805 -57 c-7 -21 -27 -72 -45 -113 -18 -41 -35 -88 -39 -104 -10
-42 -26 -14 -19 33 6 36 102 235 110 227 3 -3 -1 -22 -7 -43z m984 -21 c-1 -2
-11 1 -22 7 -14 7 -18 17 -15 31 5 20 7 19 23 -7 9 -15 16 -29 14 -31z m-91
-79 c66 -71 176 -183 243 -250 129 -130 132 -140 12 -45 -40 31 -93 70 -118
87 -96 64 -140 108 -186 189 -26 45 -60 96 -77 114 -26 26 -28 32 -13 32 11 0
70 -55 139 -127z m-1501 72 c-2 -5 -6 -21 -9 -35 -9 -36 -42 -99 -74 -140 -15
-19 -36 -50 -46 -69 -19 -34 -48 -60 -57 -50 -4 4 1 36 19 117 3 13 13 22 25
22 14 0 28 18 53 70 18 39 29 70 25 70 -5 0 -18 -21 -29 -47 -24 -56 -38 -75
-50 -67 -10 6 0 27 44 95 27 41 34 46 66 45 20 -1 35 -5 33 -11z m1584 -9 c10
-8 17 -16 14 -19 -8 -8 -50 11 -50 23 0 14 13 13 36 -4z m1154 5 c0 -6 -4 -13
-10 -16 -5 -3 -10 1 -10 9 0 9 5 16 10 16 6 0 10 -4 10 -9z m-2960 -119 c0
-10 -7 -27 -15 -38 -16 -21 -20 -8 -9 34 8 26 24 29 24 4z m2830 -32 c0 -6
-11 -15 -24 -19 -14 -6 -38 -36 -61 -78 -20 -37 -46 -78 -56 -89 -11 -12 -23
-34 -28 -50 -5 -20 -9 -24 -13 -13 -4 9 4 45 15 80 27 78 108 179 144 179 13
0 23 -5 23 -10z m44 -51 c-24 -27 -30 -16 -7 14 10 14 20 21 22 15 1 -5 -5
-18 -15 -29z m-74 -55 c-5 -20 -21 -50 -37 -68 -15 -17 -31 -35 -35 -40 -5 -6
-8 1 -8 15 0 23 67 128 81 129 4 0 3 -16 -1 -36z m920 16 c0 -5 -4 -10 -10
-10 -5 0 -10 5 -10 10 0 6 5 10 10 10 6 0 10 -4 10 -10z m-2981 -262 c-5 -64
-6 -124 -3 -131 3 -8 -3 -21 -14 -28 -10 -8 -23 -25 -28 -39 -7 -23 -9 -21
-15 20 -15 92 -9 182 16 260 14 41 25 84 25 96 0 12 3 31 8 41 13 33 20 -97
11 -219z m3075 196 c3 -8 2 -12 -4 -9 -6 3 -10 10 -10 16 0 14 7 11 14 -7z
m-3854 -5 c0 -19 -42 -109 -51 -109 -14 0 -10 24 11 74 19 42 40 61 40 35z
m2127 -55 c19 -14 32 -28 30 -31 -7 -6 -61 23 -76 41 -22 26 7 20 46 -10z
m262 -174 c32 -33 42 -57 17 -43 -28 16 -116 102 -116 114 0 13 52 -25 99 -71z
m-2458 -40 c-9 -24 -10 -24 -10 7 -1 17 2 40 7 50 6 15 7 14 10 -7 2 -14 -2
-37 -7 -50z m2829 -25 c-19 -19 -41 -35 -49 -34 -11 0 -12 2 -3 6 7 3 24 23
38 45 19 30 29 37 37 29 8 -8 2 -20 -23 -46z m-2840 -63 c0 -17 -8 -32 -21
-40 -29 -18 -31 -12 -11 31 20 44 32 47 32 9z m2713 -4 c-22 -11 -93 -3 -93
10 0 4 26 5 57 3 48 -3 54 -5 36 -13z m-2762 -239 c-9 -22 -10 -22 -10 -3 -1
11 2 24 6 27 12 12 14 0 4 -24z m25 -88 c-20 -19 -21 -6 -3 50 l12 41 3 -38
c2 -24 -2 -42 -12 -53z m-66 -8 c0 -19 -3 -24 -10 -17 -6 6 -8 18 -4 27 9 24
14 21 14 -10z m998 -942 c20 -12 -33 -24 -71 -15 -22 4 -26 8 -16 15 18 11 70
11 87 0z m-2298 -5 c0 -2 -7 -7 -16 -10 -8 -3 -12 -2 -9 4 6 10 25 14 25 6z
m1696 -12 c47 -13 74 -14 187 -5 72 5 133 9 134 7 2 -1 -55 -18 -125 -36 -142
-38 -203 -41 -302 -15 -50 13 -89 16 -165 12 -71 -4 -88 -3 -58 3 23 5 52 14
65 21 22 12 104 25 176 28 19 0 58 -6 88 -15z"/>
<path d="M5610 3241 c0 -5 7 -12 16 -15 14 -5 15 -4 4 9 -14 17 -20 19 -20 6z"/>
<path d="M5800 3166 c0 -2 8 -10 18 -17 15 -13 16 -12 3 4 -13 16 -21 21 -21
13z"/>
<path d="M7212 10049 c-18 -12 -31 -24 -28 -26 2 -3 22 7 43 21 45 31 32 35
-15 5z"/>
<path d="M10075 9030 c-99 -9 -118 -14 -190 -49 -44 -22 -98 -55 -120 -74 -22
-18 -59 -44 -82 -57 -23 -13 -40 -27 -37 -31 2 -4 -1 -11 -7 -15 -8 -4 -9 -3
-5 4 12 19 -5 14 -41 -14 -18 -14 -33 -32 -33 -40 0 -18 10 -18 46 1 16 8 37
15 47 15 23 0 122 -35 139 -49 53 -44 120 -103 162 -145 112 -107 283 -266
308 -285 15 -12 57 -36 93 -53 63 -29 70 -30 117 -20 70 17 123 62 138 120 11
47 8 61 -33 149 -16 35 -104 129 -142 153 -19 12 -35 25 -35 28 0 4 21 19 48
34 60 34 120 95 131 134 20 71 -36 147 -130 178 -64 20 -231 27 -374 16z m95
-21 c0 -5 -11 -9 -24 -9 -14 0 -37 -5 -52 -10 -15 -6 -60 -15 -101 -21 -41 -6
-93 -20 -114 -31 -22 -11 -42 -18 -45 -15 -3 3 29 22 72 44 54 26 96 40 138
43 95 9 126 9 126 -1z m153 -26 c-7 -2 -19 -2 -25 0 -7 3 -2 5 12 5 14 0 19
-2 13 -5z m220 -65 c18 -24 19 -32 8 -68 -14 -48 -68 -103 -134 -137 -40 -20
-55 -23 -89 -16 -23 5 -43 13 -45 19 -2 6 41 30 94 54 54 24 108 52 121 63 32
29 28 69 -10 114 l-33 37 34 -19 c19 -11 43 -32 54 -47z m-85 17 c34 -29 45
-58 28 -79 -6 -8 -62 -40 -125 -72 -95 -48 -122 -57 -170 -58 -66 -2 -81 -9
-81 -41 0 -58 103 -83 208 -49 l50 16 56 -37 c66 -44 107 -93 141 -169 39 -88
31 -138 -28 -175 -111 -68 -217 -19 -448 210 -92 91 -289 269 -298 269 -5 0
-30 9 -56 21 l-48 21 59 30 c33 17 66 36 74 43 24 21 177 53 289 61 57 4 127
12 155 19 28 7 77 13 108 14 47 1 62 -3 86 -24z m-658 -40 c0 -6 -103 -65
-115 -65 -10 0 96 69 108 70 4 0 7 -2 7 -5z"/>
<path d="M4783 8428 c-16 -24 -41 -64 -56 -89 -36 -63 -168 -380 -162 -389 3
-4 0 -30 -5 -56 -21 -104 -30 -163 -40 -264 -5 -58 -12 -127 -15 -155 -4 -46
-4 -45 10 15 7 36 27 144 44 240 17 96 39 207 50 245 53 198 66 235 98 300 19
38 53 96 75 128 22 32 38 61 35 63 -3 3 -18 -14 -34 -38z"/>
<path d="M6419 8453 c-13 -17 -13 -17 6 -3 11 8 22 16 24 17 2 2 0 3 -6 3 -6
0 -17 -8 -24 -17z"/>
<path d="M8360 7951 c-90 -28 -145 -95 -144 -176 0 -46 29 -124 40 -112 3 3
-2 19 -10 36 -56 107 36 243 164 243 44 0 102 -21 115 -41 3 -6 -8 -8 -28 -4
-45 7 -103 -21 -122 -58 -17 -32 -20 -126 -5 -149 7 -12 10 -8 10 14 0 24 2
27 15 16 28 -23 86 -30 118 -14 46 24 43 10 -10 -45 -44 -46 -54 -51 -92 -51
-53 0 -96 22 -114 58 -46 89 -17 180 66 211 16 6 26 15 22 20 -10 17 -68 -15
-100 -53 -30 -38 -33 -54 -24 -160 3 -43 8 -51 41 -73 33 -23 46 -25 117 -22
73 4 83 7 111 34 18 17 39 43 47 59 33 63 8 182 -48 233 -40 35 -114 50 -169
34z m166 -89 c25 -20 49 -62 36 -62 -5 0 -15 6 -21 14 -14 17 -66 31 -96 27
-11 -2 -30 -12 -42 -24 -27 -24 -30 -12 -7 21 29 42 93 54 130 24z m2 -60 c60
-39 -16 -107 -92 -82 -53 17 -63 35 -39 68 31 42 80 47 131 14z m42 -96 c0
-18 -48 -76 -62 -76 -6 0 4 16 21 35 17 20 31 40 31 45 0 6 2 10 5 10 3 0 5
-6 5 -14z"/>
<path d="M3952 7654 c-81 -41 -140 -179 -167 -386 -4 -27 -11 -48 -18 -48 -7
0 -36 16 -64 35 -46 31 -58 34 -94 29 -87 -14 -127 -87 -116 -212 10 -101 45
-161 144 -246 46 -39 105 -100 132 -136 39 -52 62 -72 112 -97 151 -74 222
-101 282 -105 49 -3 59 13 42 71 -14 47 -48 225 -60 316 -8 58 -8 237 1 521
l7 201 -30 33 c-25 28 -37 34 -84 37 -37 3 -64 -2 -87 -13z m-389 -521 c9 -85
28 -156 58 -217 34 -68 29 -86 -9 -39 -43 50 -79 188 -74 276 3 44 20 31 25
-20z m152 -324 c11 -17 -1 -21 -15 -4 -8 9 -8 15 -2 15 6 0 14 -5 17 -11z
m115 -139 c17 -22 26 -37 18 -34 -19 8 -72 74 -60 74 6 0 25 -18 42 -40z"/>
<path d="M3742 2715 c0 -16 2 -22 5 -12 2 9 2 23 0 30 -3 6 -5 -1 -5 -18z"/>
<path d="M5325 2248 c-79 -18 -99 -19 -161 -9 -82 14 -198 5 -215 -15 -6 -8
-23 -13 -38 -13 -25 1 -25 2 4 8 16 3 -17 6 -74 7 -85 0 -98 -2 -79 -12 40
-20 168 -27 208 -11 47 19 165 30 189 18 12 -7 62 -8 142 -2 68 4 111 9 94 11
-30 2 -30 2 -5 10 14 4 36 8 50 9 20 1 22 -1 10 -9 -10 -7 15 -10 79 -10 103
0 116 6 31 14 -30 3 -71 10 -90 16 -41 12 -33 13 -145 -12z"/>
<path d="M5660 2229 l-35 -6 33 -2 c18 0 56 -8 83 -17 47 -16 56 -16 132 0 45
9 105 18 132 20 28 2 12 2 -35 0 -47 -2 -112 -6 -145 -10 -42 -4 -72 -2 -95 8
-22 8 -49 11 -70 7z"/>
<path d="M7932 1782 c-8 -5 7 -9 40 -9 65 0 139 -13 133 -23 -9 -15 -60 -18
-116 -8 -47 9 -61 8 -89 -6 -42 -21 -49 -15 -14 13 15 11 22 21 16 21 -6 0
-23 -10 -39 -23 -69 -56 -129 -85 -188 -92 -33 -4 -85 -14 -115 -22 -42 -12
-80 -14 -160 -9 l-105 6 35 -21 c55 -34 152 -42 225 -20 159 50 204 57 272 40
70 -16 119 -4 204 51 61 39 64 40 152 40 l90 0 55 -45 c31 -26 66 -46 81 -46
47 -3 105 2 160 12 76 15 107 13 180 -10 64 -21 137 -28 127 -13 -3 5 -36 17
-73 26 -37 9 -90 24 -118 33 -42 13 -62 14 -122 4 -121 -19 -135 -16 -218 40
l-76 51 -107 3 c-59 1 -132 6 -162 9 -30 4 -61 3 -68 -2z m103 -76 c6 -2 -12
-13 -40 -26 -34 -15 -76 -24 -132 -28 -95 -5 -111 9 -35 32 26 8 65 21 86 29
37 14 49 13 121 -7z m380 -56 c3 -5 -1 -10 -9 -10 -8 0 -18 5 -21 10 -3 6 1
10 9 10 8 0 18 -4 21 -10z"/>
</g>
</svg>
